<svg width="159" height="97" viewBox="0 0 159 97" fill="none" xmlns="http://www.w3.org/2000/svg">
<line x1="150.578" y1="78.2781" x2="150.578" y2="58" stroke="black" stroke-width="0.84492"/>
<line x1="158.578" y1="86.4866" x2="158.578" y2="51" stroke="black" stroke-width="0.84492"/>
<circle cx="31.8128" cy="39.0267" r="22.3904" stroke="url(#paint0_linear_503_7)" stroke-width="0.84492"/>
<circle cx="88.0002" cy="31" r="30.4171" stroke="url(#paint1_linear_503_7)" stroke-width="0.84492"/>
<path d="M13.2234 82.2699C12.9536 82.2699 12.7062 82.1799 12.4813 82.0225C11.9191 81.4603 11.6267 80.3808 11.6267 78.7617C11.6267 77.8397 11.8067 76.198 12.144 73.8367C12.5038 71.4755 13.4258 68.1022 14.9325 63.7395C16.4617 59.3767 18.2383 55.4637 20.3073 51.978C12.5038 52.158 8.00612 52.3603 6.85922 52.5852L6.02715 52.6752C5.37498 52.7427 3.73333 52.7651 1.1022 52.7651C0.809849 52.7427 0.65243 52.5852 0.65243 52.2929C0.65243 52.0005 0.809849 51.8431 1.1022 51.8206C2.33906 51.7532 4.36301 51.6857 7.12908 51.5957C12.5038 51.4383 17.0464 51.3484 20.757 51.2809C21.7915 49.8641 22.736 49.167 23.5906 49.167C24.2877 49.167 24.625 49.7067 24.625 50.179C24.625 50.3814 24.58 50.5838 24.4676 50.8087C24.4001 50.9661 24.2652 51.056 24.2652 51.1235C24.2652 51.191 24.5351 51.2359 25.0973 51.2359C26.5365 51.2359 27.7059 51.2359 28.583 51.2134C29.9772 51.191 31.8888 51.146 34.3175 51.1235C34.5649 51.146 34.6773 51.2584 34.6773 51.5058C34.6773 51.7532 34.5649 51.8656 34.3175 51.8881C32.8333 51.8656 31.349 51.8656 29.8423 51.8656C27.8633 51.8656 25.8844 51.8881 23.9054 51.9106C19.4302 60.4337 16.4393 67.2476 14.91 72.3525C13.7182 76.4229 13.111 79.0765 13.111 80.3134C13.111 80.8756 13.2459 81.1679 13.5383 81.1679C14.1454 81.1679 15.5622 79.4588 18.0584 75.9956C19.2953 74.264 20.6446 72.5324 22.0613 70.7558C23.4781 68.9792 24.8724 67.5175 26.2892 66.3256C26.3566 66.2582 26.4466 66.2357 26.514 66.2357C26.7164 66.2357 26.8064 66.3481 26.8064 66.573C26.8064 66.6405 26.7614 66.7304 26.6715 66.7979C23.5231 69.519 20.802 72.7348 18.5307 76.4454C17.2488 78.4019 16.1244 79.9311 15.1124 81.078C14.4153 81.8651 13.7856 82.2699 13.2234 82.2699ZM34.7898 72.375C34.7223 72.375 34.4299 72.3525 33.8902 72.285C33.328 72.2401 33.0132 71.5654 32.9457 70.2611V70.0137C32.9457 68.7768 33.373 67.3826 34.25 65.8084C34.3625 65.606 34.5199 65.4036 34.5199 65.3361C34.4749 65.3361 34.0251 65.6735 33.1931 66.3481L30.4495 68.507C28.8528 69.6764 27.6609 70.2611 26.8739 70.2611C26.5365 70.2611 26.2892 70.1711 26.0868 69.9687C25.7269 69.5864 25.547 69.0467 25.547 68.3721C25.547 67.8098 25.7269 66.9103 26.1092 65.6735C26.4915 64.4591 27.3461 63.1772 28.6279 61.8504C29.5949 60.8385 30.6519 60.3437 31.8213 60.3437C32.2036 60.3437 32.5859 60.3887 32.9682 60.5011C34.1826 60.9734 34.7898 61.7605 34.7898 62.8624C34.7898 63.5146 34.4974 64.0318 33.9127 64.3691C33.8452 64.3916 33.7778 64.4141 33.7328 64.4141C33.6428 64.4141 33.5979 64.3017 33.5979 64.0768L33.6204 63.672C33.6204 63.3796 33.5979 62.9299 33.0357 62.9299H32.8782C31.9112 63.1323 30.9442 63.8969 29.9772 65.2237C28.9878 66.5505 28.2456 67.7199 27.7284 68.7768C28.1782 68.6644 28.9203 68.2821 29.9323 67.6075C30.9442 66.9553 31.9337 66.2357 32.9457 65.4935C33.9577 64.7514 34.6773 64.2117 35.1046 63.8744L35.1945 63.8069C35.7118 63.4246 36.184 63.2447 36.5663 63.2447C36.7687 63.2447 36.9711 63.3122 37.1285 63.4246C37.5108 63.6945 37.7132 64.1218 37.7132 64.7065C37.7132 64.8414 37.6907 64.9988 37.6683 65.1562C37.5108 65.9208 37.286 66.5955 36.9486 67.1577C36.5214 67.8323 36.1391 68.9343 35.8017 70.486H35.9591C36.8137 70.486 38.0506 69.7888 39.6472 68.3945C40.6592 67.54 41.7162 66.7979 42.8406 66.1682C42.908 66.1457 42.9755 66.1232 43.043 66.1232C43.2004 66.1232 43.3578 66.2357 43.3578 66.483V66.618C43.3578 66.6854 43.2679 66.7754 43.1104 66.8428C41.6712 67.45 40.4118 68.3496 39.3549 69.5415L39.13 69.7663C37.2635 71.4979 35.8017 72.375 34.7898 72.375ZM40.5243 79.7512H40.4793C40.1645 79.7512 40.007 79.2564 40.007 78.2444C40.007 76.9401 40.2769 74.9836 40.8391 72.375L41.064 71.453C41.064 71.4305 41.019 71.4305 40.9066 71.4305C40.6592 71.3855 40.5243 71.2281 40.5243 70.9807C40.5243 70.7333 40.6592 70.5984 40.9066 70.5984H40.974C41.3114 70.5984 41.4013 70.3061 41.6487 69.3166C42.2109 66.2582 44.2349 61.6031 47.6756 55.3288L48.0804 54.5417C48.4627 53.7546 48.9349 52.99 49.4746 52.2704C49.9919 51.5508 50.689 51.0785 51.5211 50.8761L51.8134 50.8536C52.713 50.8536 53.4776 51.4833 53.4776 52.2929C53.4776 52.4503 53.4551 52.6077 53.4101 52.7651C52.8929 54.3168 52.4881 54.1819 51.0263 55.8685L50.9814 55.891C50.9139 55.891 50.8914 55.7111 50.8914 55.3288L50.3517 56.1384C48.3053 58.6571 45.944 63.0648 43.2679 69.3615C46.3263 66.3256 48.1478 64.1667 48.71 62.8849C49.1823 62.0079 49.677 61.5806 50.1943 61.5806C50.6665 61.5806 50.9589 61.8279 51.0938 62.3227C51.1163 62.4126 51.1388 62.5026 51.1388 62.5926C51.1388 62.7949 51.0713 62.9749 50.9139 63.1323C50.8015 63.3347 50.3967 63.7619 49.722 64.4366C49.0249 65.1112 48.2378 65.8759 47.3607 66.7079C46.4612 67.5625 45.6516 68.3271 44.9095 69.0017C44.1674 69.6764 43.6951 70.1037 43.4927 70.3061C43.2903 70.4635 43.0655 70.5759 43.0655 70.6434C43.0655 70.6659 43.1329 70.6884 43.2679 70.7108C43.4028 70.7333 44.1899 70.7558 45.6066 70.7783C51.0263 70.6209 54.4446 69.1367 55.8613 66.2806C55.9513 66.1457 56.0637 66.0782 56.1987 66.0782C56.3561 66.0782 56.5135 66.1457 56.6259 66.3031C56.6484 66.3706 56.6709 66.4156 56.6709 66.483C56.6709 66.5505 56.6484 66.6405 56.6035 66.7304C54.557 69.4065 52.4431 70.9807 50.2168 71.4305C49.0024 71.6778 47.6981 71.8128 46.2813 71.8128C45.0894 71.8128 43.8526 71.7228 42.5257 71.5429C41.8061 73.9941 41.3114 76.5578 41.0415 79.2114C41.019 79.3914 40.7941 79.6837 40.5243 79.7512ZM57.9303 72.9147C57.2331 72.9147 56.6035 72.7123 56.0412 72.3075C55.1192 71.408 54.6695 70.3285 54.6695 69.0467C54.6695 65.8309 56.2436 63.3122 59.4145 61.5356C60.3365 61.0409 61.2361 60.7935 62.0681 60.7935C62.7203 60.7935 63.26 61.0633 63.6873 61.6031C63.9347 62.0303 64.0471 62.4576 64.0471 62.9074C64.0471 63.4471 63.7997 64.1218 63.305 64.9538C62.8102 65.7859 61.9782 66.573 60.8313 67.3151C59.8418 67.9223 58.8973 68.2371 58.0202 68.2371L57.548 68.2146C57.2106 68.8668 57.0307 69.5415 57.0307 70.2386V70.3285C57.1882 71.2281 57.6379 71.6778 58.425 71.6778C58.6724 71.6778 59.2346 71.5429 60.0667 71.2955C60.8987 71.0482 62.0906 70.4185 63.6648 69.4065C65.2165 68.3945 66.4534 67.5175 67.3754 66.8204L67.9601 66.4156C68.0275 66.3706 68.0725 66.3481 68.14 66.3481C68.2299 66.3481 68.4098 66.4381 68.4098 66.7079C68.4098 66.7979 68.3649 66.8878 68.2749 66.9553C67.5103 67.495 66.7682 68.0347 66.0261 68.5745C62.1806 71.4755 59.482 72.9147 57.9303 72.9147ZM58.0652 67.2027C59.5944 66.6405 60.7863 65.9658 61.6408 65.1787C62.4954 64.3916 62.9227 63.7619 62.9227 63.2897C62.9227 63.0873 62.8102 62.9973 62.6078 62.9973C62.4054 62.9973 62.0456 63.1098 61.5734 63.3572C60.4265 63.9643 59.2571 65.2462 58.0652 67.2027ZM78.0798 82.2699C77.81 82.2699 77.5626 82.1799 77.3377 82.0225C76.7755 81.4603 76.4832 80.3808 76.4832 78.7617C76.4832 77.8397 76.6631 76.198 77.0004 73.8367C77.3602 71.4755 78.2822 68.1022 79.7889 63.7395C81.3182 59.3767 83.0947 55.4637 85.1637 51.978C77.3602 52.158 72.8625 52.3603 71.7156 52.5852L70.8836 52.6752C70.2314 52.7427 68.5897 52.7651 65.9586 52.7651C65.6663 52.7427 65.5088 52.5852 65.5088 52.2929C65.5088 52.0005 65.6663 51.8431 65.9586 51.8206C67.1955 51.7532 69.2194 51.6857 71.9855 51.5957C77.3602 51.4383 81.9029 51.3484 85.6134 51.2809C86.6479 49.8641 87.5924 49.167 88.447 49.167C89.1441 49.167 89.4814 49.7067 89.4814 50.179C89.4814 50.3814 89.4365 50.5838 89.324 50.8087C89.2565 50.9661 89.1216 51.056 89.1216 51.1235C89.1216 51.191 89.3915 51.2359 89.9537 51.2359C91.3929 51.2359 92.5623 51.2359 93.4394 51.2134C94.8337 51.191 96.7452 51.146 99.1739 51.1235C99.4213 51.146 99.5337 51.2584 99.5337 51.5058C99.5337 51.7532 99.4213 51.8656 99.1739 51.8881C97.6897 51.8656 96.2054 51.8656 94.6987 51.8656C92.7198 51.8656 90.7408 51.8881 88.7618 51.9106C84.2866 60.4337 81.2957 67.2476 79.7665 72.3525C78.5746 76.4229 77.9674 79.0765 77.9674 80.3134C77.9674 80.8756 78.1023 81.1679 78.3947 81.1679C79.0019 81.1679 80.4186 79.4588 82.9148 75.9956C84.1517 74.264 85.501 72.5324 86.9178 70.7558C88.3345 68.9792 89.7288 67.5175 91.1456 66.3256C91.213 66.2582 91.303 66.2357 91.3705 66.2357C91.5728 66.2357 91.6628 66.3481 91.6628 66.573C91.6628 66.6405 91.6178 66.7304 91.5279 66.7979C88.3795 69.519 85.6584 72.7348 83.3871 76.4454C82.1053 78.4019 80.9808 79.9311 79.9689 81.078C79.2717 81.8651 78.642 82.2699 78.0798 82.2699ZM99.6462 72.375C99.5787 72.375 99.2863 72.3525 98.7466 72.285C98.1844 72.2401 97.8696 71.5654 97.8021 70.2611V70.0137C97.8021 68.7768 98.2294 67.3826 99.1064 65.8084C99.2189 65.606 99.3763 65.4036 99.3763 65.3361C99.3313 65.3361 98.8816 65.6735 98.0495 66.3481L95.3059 68.507C93.7092 69.6764 92.5174 70.2611 91.7303 70.2611C91.3929 70.2611 91.1456 70.1711 90.9432 69.9687C90.5834 69.5864 90.4034 69.0467 90.4034 68.3721C90.4034 67.8098 90.5834 66.9103 90.9657 65.6735C91.348 64.4591 92.2025 63.1772 93.4844 61.8504C94.4514 60.8385 95.5083 60.3437 96.6777 60.3437C97.06 60.3437 97.4423 60.3887 97.8246 60.5011C99.039 60.9734 99.6462 61.7605 99.6462 62.8624C99.6462 63.5146 99.3538 64.0318 98.7691 64.3691C98.7017 64.3916 98.6342 64.4141 98.5892 64.4141C98.4993 64.4141 98.4543 64.3017 98.4543 64.0768L98.4768 63.672C98.4768 63.3796 98.4543 62.9299 97.8921 62.9299H97.7347C96.7677 63.1323 95.8007 63.8969 94.8337 65.2237C93.8442 66.5505 93.1021 67.7199 92.5848 68.7768C93.0346 68.6644 93.7767 68.2821 94.7887 67.6075C95.8007 66.9553 96.7901 66.2357 97.8021 65.4935C98.8141 64.7514 99.5337 64.2117 99.961 63.8744L100.051 63.8069C100.568 63.4246 101.04 63.2447 101.423 63.2447C101.625 63.2447 101.828 63.3122 101.985 63.4246C102.367 63.6945 102.57 64.1218 102.57 64.7065C102.57 64.8414 102.547 64.9988 102.525 65.1562C102.367 65.9208 102.142 66.5955 101.805 67.1577C101.378 67.8323 100.995 68.9343 100.658 70.486H100.816C101.67 70.486 102.907 69.7888 104.504 68.3945C105.516 67.54 106.573 66.7979 107.697 66.1682C107.764 66.1457 107.832 66.1232 107.899 66.1232C108.057 66.1232 108.214 66.2357 108.214 66.483V66.618C108.214 66.6854 108.124 66.7754 107.967 66.8428C106.528 67.45 105.268 68.3496 104.211 69.5415L103.986 69.7663C102.12 71.4979 100.658 72.375 99.6462 72.375ZM105.336 84.991C105.223 84.991 104.976 84.9235 104.571 84.7886C104.166 84.6536 103.919 83.7091 103.829 81.9325V81.3029C103.829 78.6717 104.279 75.6583 105.201 72.3075C106.123 68.9568 107.292 65.9433 108.776 63.2672C110.238 60.6136 111.7 59.1069 113.162 58.7695H113.409C114.061 58.7695 114.466 58.9944 114.668 59.4442C114.758 59.6466 114.803 59.849 114.803 60.0289C114.803 60.4562 114.578 60.8385 114.129 61.1983C113.904 61.3557 113.611 61.648 113.252 62.0303C112.375 62.9973 111.273 64.9538 109.923 67.9223C106.977 74.6463 105.493 79.7737 105.493 83.2818C105.493 83.4393 105.493 83.5292 105.516 83.5742V83.6192C106.213 83.012 107.045 81.8426 107.989 80.0885C108.934 78.3344 109.968 76.3104 111.07 74.0391C112.847 70.2386 114.691 66.7979 116.557 63.717C118.289 60.9059 119.908 59.4892 121.392 59.4892L121.775 59.5116C123.102 60.0514 123.776 61.0858 123.776 62.615C123.776 62.6375 123.776 63.0198 123.776 63.8069C123.754 64.594 123.371 65.6959 122.607 67.1127C122.787 67.1352 122.967 67.1352 123.169 67.1352C124.091 67.1352 124.991 66.9103 125.823 66.4605C125.89 66.4156 125.958 66.3931 126.025 66.3931C126.205 66.3931 126.295 66.483 126.295 66.6854C126.295 66.8878 126.137 67.0902 125.823 67.2926C125.35 67.585 124.586 67.7199 123.484 67.7199C123.124 67.7199 122.719 67.6974 122.292 67.6749C120.65 70.1261 118.896 71.363 117.03 71.363C116.58 71.363 116.175 71.2506 115.838 71.0482C115.343 70.7558 115.096 70.3285 115.096 69.7888C115.096 69.5639 115.141 69.3166 115.231 69.0242C115.883 67.6075 117.3 66.8878 119.481 66.8878L120.043 66.9103C120.763 65.3586 121.123 64.0543 121.123 63.0423C121.123 62.0753 120.853 61.5806 120.313 61.5806C120.066 61.5806 119.616 61.7605 118.964 62.1428C118.311 62.5251 117.075 64.2567 115.298 67.3376C113.679 70.2836 112.15 73.387 110.688 76.6028C109.496 79.189 108.484 81.2354 107.652 82.7421C106.775 84.2488 105.988 84.991 105.336 84.991ZM116.76 70.2161H117.187C117.457 70.1936 118.019 69.7214 118.851 68.7993C119.189 68.3945 119.503 67.9673 119.751 67.495C118.356 67.5175 117.367 67.7424 116.805 68.1697C116.243 68.6194 115.95 69.0467 115.95 69.474C115.95 69.9687 116.22 70.2161 116.76 70.2161ZM128.004 72.9147C127.307 72.9147 126.677 72.7123 126.115 72.3075C125.193 71.408 124.743 70.3285 124.743 69.0467C124.743 65.8309 126.317 63.3122 129.488 61.5356C130.41 61.0409 131.31 60.7935 132.142 60.7935C132.794 60.7935 133.334 61.0633 133.761 61.6031C134.008 62.0303 134.121 62.4576 134.121 62.9074C134.121 63.4471 133.873 64.1218 133.379 64.9538C132.884 65.7859 132.052 66.573 130.905 67.3151C129.915 67.9223 128.971 68.2371 128.094 68.2371L127.622 68.2146C127.284 68.8668 127.104 69.5415 127.104 70.2386V70.3285C127.262 71.2281 127.712 71.6778 128.499 71.6778C128.746 71.6778 129.308 71.5429 130.14 71.2955C130.972 71.0482 132.164 70.4185 133.739 69.4065C135.29 68.3945 136.527 67.5175 137.449 66.8204L138.034 66.4156C138.101 66.3706 138.146 66.3481 138.214 66.3481C138.304 66.3481 138.484 66.4381 138.484 66.7079C138.484 66.7979 138.439 66.8878 138.349 66.9553C137.584 67.495 136.842 68.0347 136.1 68.5745C132.254 71.4755 129.556 72.9147 128.004 72.9147ZM128.139 67.2027C129.668 66.6405 130.86 65.9658 131.715 65.1787C132.569 64.3916 132.996 63.7619 132.996 63.2897C132.996 63.0873 132.884 62.9973 132.682 62.9973C132.479 62.9973 132.119 63.1098 131.647 63.3572C130.5 63.9643 129.331 65.2462 128.139 67.2027Z" fill="black"/>
<path d="M11.7297 85.9198H12.7133L15.116 91.1477L17.499 85.9198H18.4891L15.2018 93.1016H15.0368L11.7297 85.9198ZM20.2317 82.9626C20.443 82.9626 20.6234 83.0374 20.773 83.187C20.9226 83.3366 20.9974 83.517 20.9974 83.7283C20.9974 83.9351 20.9226 84.1133 20.773 84.263C20.6234 84.4126 20.443 84.4874 20.2317 84.4874C20.0249 84.4874 19.8467 84.4126 19.6971 84.263C19.5474 84.1133 19.4726 83.9351 19.4726 83.7283C19.4726 83.517 19.5474 83.3366 19.6971 83.187C19.8467 83.0374 20.0249 82.9626 20.2317 82.9626ZM19.7697 85.9198H20.7004V93.1016H19.7697V85.9198ZM29.7833 83.1474V93.1016H28.8724V91.8672C28.4851 92.3381 28.0494 92.6924 27.5654 92.93C27.0857 93.1676 26.5598 93.2864 25.9878 93.2864C24.9712 93.2864 24.1021 92.919 23.3804 92.1841C22.6631 91.4448 22.3044 90.547 22.3044 89.4909C22.3044 88.4567 22.6675 87.5722 23.3936 86.8373C24.1197 86.1024 24.9932 85.735 26.0142 85.735C26.6038 85.735 27.1363 85.8604 27.6116 86.1112C28.0913 86.3621 28.5115 86.7383 28.8724 87.24V83.1474H29.7833ZM26.0868 86.6261C25.5719 86.6261 25.0966 86.7537 24.661 87.0089C24.2253 87.2598 23.8777 87.614 23.618 88.0717C23.3628 88.5294 23.2352 89.0134 23.2352 89.5239C23.2352 90.03 23.365 90.514 23.6246 90.9761C23.8843 91.4382 24.2319 91.799 24.6676 92.0587C25.1076 92.3139 25.5785 92.4415 26.0802 92.4415C26.5862 92.4415 27.0659 92.3139 27.5192 92.0587C27.9724 91.8034 28.3201 91.458 28.5621 91.0223C28.8086 90.5867 28.9318 90.096 28.9318 89.5503C28.9318 88.7186 28.6567 88.0233 28.1067 87.4644C27.561 86.9055 26.8877 86.6261 26.0868 86.6261ZM37.9288 90.7187L38.7078 91.1279C38.4525 91.6296 38.1577 92.0345 37.8232 92.3425C37.4888 92.6505 37.1125 92.886 36.6945 93.0488C36.2764 93.2072 35.8033 93.2864 35.2753 93.2864C34.1047 93.2864 33.1894 92.9036 32.5293 92.1379C31.8692 91.3678 31.5391 90.4986 31.5391 89.5305C31.5391 88.6196 31.8186 87.8077 32.3775 87.0948C33.086 86.1882 34.0343 85.735 35.2225 85.735C36.4458 85.735 37.4228 86.1992 38.1533 87.1278C38.6726 87.7835 38.9366 88.602 38.9454 89.5833H32.4897C32.5073 90.4194 32.7735 91.1059 33.2884 91.6428C33.8033 92.1753 34.4392 92.4415 35.1961 92.4415C35.5613 92.4415 35.9156 92.3777 36.2588 92.2501C36.6065 92.1225 36.9013 91.953 37.1433 91.7418C37.3854 91.5306 37.6472 91.1895 37.9288 90.7187ZM37.9288 88.7846C37.8056 88.2917 37.6252 87.8979 37.3876 87.603C37.1543 87.3082 36.8441 87.0706 36.4568 86.8901C36.0696 86.7097 35.6625 86.6195 35.2357 86.6195C34.5316 86.6195 33.9265 86.8461 33.4204 87.2994C33.0508 87.6294 32.7713 88.1245 32.5821 88.7846H37.9288ZM44.0743 85.735C45.1789 85.735 46.0942 86.1354 46.8203 86.9363C47.4804 87.6668 47.8104 88.5316 47.8104 89.5305C47.8104 90.5338 47.4606 91.4118 46.7609 92.1643C46.0656 92.9124 45.1701 93.2864 44.0743 93.2864C42.9742 93.2864 42.0742 92.9124 41.3745 92.1643C40.6792 91.4118 40.3316 90.5338 40.3316 89.5305C40.3316 88.536 40.6616 87.6734 41.3217 86.9429C42.0478 86.1376 42.9654 85.735 44.0743 85.735ZM44.0743 86.6393C43.3086 86.6393 42.6507 86.9231 42.1006 87.4908C41.5506 88.0585 41.2755 88.745 41.2755 89.5503C41.2755 90.0696 41.4009 90.5536 41.6518 91.0025C41.9026 91.4514 42.2415 91.799 42.6683 92.0455C43.0952 92.2875 43.5638 92.4085 44.0743 92.4085C44.5848 92.4085 45.0535 92.2875 45.4803 92.0455C45.9072 91.799 46.246 91.4514 46.4969 91.0025C46.7477 90.5536 46.8731 90.0696 46.8731 89.5503C46.8731 88.745 46.5959 88.0585 46.0414 87.4908C45.4913 86.9231 44.8356 86.6393 44.0743 86.6393ZM49.5465 85.9198H50.464V87.24C50.8293 86.7383 51.2495 86.3621 51.7248 86.1112C52.2001 85.8604 52.7303 85.735 53.3156 85.735C54.3366 85.735 55.2101 86.1024 55.9362 86.8373C56.6623 87.5722 57.0254 88.4567 57.0254 89.4909C57.0254 90.547 56.6645 91.4448 55.9428 92.1841C55.2255 92.919 54.3586 93.2864 53.342 93.2864C52.77 93.2864 52.2441 93.1676 51.7644 92.93C51.2847 92.6924 50.8513 92.3381 50.464 91.8672V95.7288H49.5465V85.9198ZM53.243 86.6261C52.4421 86.6261 51.7666 86.9055 51.2165 87.4644C50.6709 88.0233 50.398 88.7186 50.398 89.5503C50.398 90.096 50.519 90.5867 50.7611 91.0223C51.0075 91.458 51.3574 91.8034 51.8106 92.0587C52.2683 92.3139 52.7501 92.4415 53.2562 92.4415C53.7535 92.4415 54.22 92.3139 54.6556 92.0587C55.0957 91.799 55.4455 91.4382 55.7052 90.9761C55.9648 90.514 56.0946 90.03 56.0946 89.5239C56.0946 89.0134 55.9648 88.5294 55.7052 88.0717C55.4499 87.614 55.1045 87.2598 54.6688 87.0089C54.2332 86.7537 53.7579 86.6261 53.243 86.6261ZM58.4116 85.9198H59.3555V86.9693C59.6371 86.5557 59.9342 86.2476 60.2466 86.0452C60.5591 85.8384 60.8847 85.735 61.2236 85.735C61.4788 85.735 61.7516 85.8164 62.0421 85.9792L61.5602 86.7581C61.3666 86.6745 61.2037 86.6327 61.0717 86.6327C60.7637 86.6327 60.4666 86.7603 60.1806 87.0155C59.8946 87.2664 59.6767 87.658 59.5271 88.1905C59.4127 88.5998 59.3555 89.4271 59.3555 90.6725V93.1016H58.4116V85.9198ZM66.2271 85.735C67.3316 85.735 68.2469 86.1354 68.973 86.9363C69.6331 87.6668 69.9632 88.5316 69.9632 89.5305C69.9632 90.5338 69.6133 91.4118 68.9136 92.1643C68.2183 92.9124 67.3228 93.2864 66.2271 93.2864C65.1269 93.2864 64.227 92.9124 63.5273 92.1643C62.832 91.4118 62.4843 90.5338 62.4843 89.5305C62.4843 88.536 62.8144 87.6734 63.4745 86.9429C64.2006 86.1376 65.1181 85.735 66.2271 85.735ZM66.2271 86.6393C65.4614 86.6393 64.8035 86.9231 64.2534 87.4908C63.7033 88.0585 63.4283 88.745 63.4283 89.5503C63.4283 90.0696 63.5537 90.5536 63.8045 91.0025C64.0554 91.4514 64.3942 91.799 64.8211 92.0455C65.2479 92.2875 65.7166 92.4085 66.2271 92.4085C66.7375 92.4085 67.2062 92.2875 67.6331 92.0455C68.0599 91.799 68.3988 91.4514 68.6496 91.0025C68.9004 90.5536 69.0259 90.0696 69.0259 89.5503C69.0259 88.745 68.7486 88.0585 68.1941 87.4908C67.6441 86.9231 66.9884 86.6393 66.2271 86.6393ZM78.8547 83.1474V93.1016H77.9437V91.8672C77.5565 92.3381 77.1208 92.6924 76.6367 92.93C76.1571 93.1676 75.6312 93.2864 75.0591 93.2864C74.0426 93.2864 73.1734 92.919 72.4517 92.1841C71.7344 91.4448 71.3758 90.547 71.3758 89.4909C71.3758 88.4567 71.7388 87.5722 72.4649 86.8373C73.191 86.1024 74.0646 85.735 75.0855 85.735C75.6752 85.735 76.2077 85.8604 76.6829 86.1112C77.1626 86.3621 77.5829 86.7383 77.9437 87.24V83.1474H78.8547ZM75.1581 86.6261C74.6433 86.6261 74.168 86.7537 73.7323 87.0089C73.2967 87.2598 72.949 87.614 72.6894 88.0717C72.4341 88.5294 72.3065 89.0134 72.3065 89.5239C72.3065 90.03 72.4363 90.514 72.696 90.9761C72.9556 91.4382 73.3033 91.799 73.7389 92.0587C74.179 92.3139 74.6499 92.4415 75.1515 92.4415C75.6576 92.4415 76.1373 92.3139 76.5905 92.0587C77.0438 91.8034 77.3914 91.458 77.6335 91.0223C77.8799 90.5867 78.0031 90.096 78.0031 89.5503C78.0031 88.7186 77.7281 88.0233 77.178 87.4644C76.6323 86.9055 75.959 86.6261 75.1581 86.6261ZM80.8349 85.9198H81.7657V89.2731C81.7657 90.0916 81.8097 90.6549 81.8977 90.9629C82.0297 91.403 82.2805 91.7506 82.6502 92.0059C83.0242 92.2611 83.4687 92.3887 83.9836 92.3887C84.4985 92.3887 84.9341 92.2655 85.2906 92.0191C85.6514 91.7682 85.9001 91.4404 86.0365 91.0355C86.1289 90.7583 86.1751 90.1708 86.1751 89.2731V85.9198H87.119V89.4447C87.119 90.4348 87.0024 91.1807 86.7692 91.6824C86.5403 92.1841 86.1927 92.5779 85.7262 92.864C85.2642 93.1456 84.6833 93.2864 83.9836 93.2864C83.2839 93.2864 82.6986 93.1456 82.2277 92.864C81.7613 92.5779 81.4114 92.1819 81.1782 91.6758C80.9493 91.1653 80.8349 90.3996 80.8349 89.3787V85.9198ZM96.1491 87.4116L95.4164 87.8671C94.7827 87.0265 93.918 86.6063 92.8222 86.6063C91.9465 86.6063 91.2182 86.8879 90.6373 87.4512C90.0608 88.0145 89.7726 88.6988 89.7726 89.5041C89.7726 90.0278 89.9046 90.5206 90.1687 90.9827C90.4371 91.4448 90.8023 91.8034 91.2644 92.0587C91.7309 92.3139 92.2523 92.4415 92.8288 92.4415C93.885 92.4415 94.7475 92.0213 95.4164 91.1807L96.1491 91.6626C95.8059 92.1775 95.3438 92.5779 94.7629 92.864C94.1864 93.1456 93.5285 93.2864 92.7892 93.2864C91.6539 93.2864 90.7121 92.9256 89.964 92.2039C89.2159 91.4822 88.8419 90.6043 88.8419 89.5701C88.8419 88.8748 89.0157 88.2301 89.3633 87.636C89.7154 87.0375 90.1973 86.5711 90.8089 86.2366C91.4206 85.9022 92.1049 85.735 92.8618 85.735C93.3371 85.735 93.7948 85.8076 94.2348 85.9528C94.6793 86.098 95.0555 86.2872 95.3636 86.5205C95.6716 86.7537 95.9335 87.0508 96.1491 87.4116ZM98.7367 83.253H99.6674V85.9198H101.133V86.7119H99.6674V93.1016H98.7367V86.7119H97.4759V85.9198H98.7367V83.253ZM102.836 82.9626C103.047 82.9626 103.228 83.0374 103.377 83.187C103.527 83.3366 103.602 83.517 103.602 83.7283C103.602 83.9351 103.527 84.1133 103.377 84.263C103.228 84.4126 103.047 84.4874 102.836 84.4874C102.629 84.4874 102.451 84.4126 102.301 84.263C102.152 84.1133 102.077 83.9351 102.077 83.7283C102.077 83.517 102.152 83.3366 102.301 83.187C102.451 83.0374 102.629 82.9626 102.836 82.9626ZM102.374 85.9198H103.305V93.1016H102.374V85.9198ZM108.618 85.735C109.723 85.735 110.638 86.1354 111.364 86.9363C112.024 87.6668 112.354 88.5316 112.354 89.5305C112.354 90.5338 112.005 91.4118 111.305 92.1643C110.61 92.9124 109.714 93.2864 108.618 93.2864C107.518 93.2864 106.618 92.9124 105.918 92.1643C105.223 91.4118 104.876 90.5338 104.876 89.5305C104.876 88.536 105.206 87.6734 105.866 86.9429C106.592 86.1376 107.509 85.735 108.618 85.735ZM108.618 86.6393C107.853 86.6393 107.195 86.9231 106.645 87.4908C106.095 88.0585 105.819 88.745 105.819 89.5503C105.819 90.0696 105.945 90.5536 106.196 91.0025C106.447 91.4514 106.785 91.799 107.212 92.0455C107.639 92.2875 108.108 92.4085 108.618 92.4085C109.129 92.4085 109.597 92.2875 110.024 92.0455C110.451 91.799 110.79 91.4514 111.041 91.0025C111.292 90.5536 111.417 90.0696 111.417 89.5503C111.417 88.745 111.14 88.0585 110.585 87.4908C110.035 86.9231 109.38 86.6393 108.618 86.6393ZM114.077 85.9198H115.001V87.207C115.371 86.7141 115.78 86.3467 116.229 86.1046C116.678 85.8582 117.166 85.735 117.695 85.735C118.231 85.735 118.707 85.8714 119.12 86.1442C119.538 86.4171 119.846 86.7845 120.044 87.2466C120.243 87.7086 120.342 88.4281 120.342 89.4051V93.1016H119.424V89.6757C119.424 88.8484 119.389 88.2961 119.318 88.0189C119.208 87.5436 119.002 87.1872 118.698 86.9495C118.394 86.7075 117.998 86.5865 117.51 86.5865C116.951 86.5865 116.449 86.7713 116.005 87.141C115.565 87.5106 115.274 87.9683 115.133 88.514C115.045 88.8704 115.001 89.5217 115.001 90.4678V93.1016H114.077V85.9198Z" fill="black"/>
<circle cx="130.513" cy="90.3957" r="3.37968" fill="#FF0000"/>
<defs>
<linearGradient id="paint0_linear_503_7" x1="46.1765" y1="23.3957" x2="14.0695" y2="57.615" gradientUnits="userSpaceOnUse">
<stop/>
<stop offset="1" stop-color="white" stop-opacity="0"/>
</linearGradient>
<linearGradient id="paint1_linear_503_7" x1="112.08" y1="9.03209" x2="68.1446" y2="52.5455" gradientUnits="userSpaceOnUse">
<stop/>
<stop offset="1" stop-color="white" stop-opacity="0"/>
</linearGradient>
</defs>
</svg>
