<svg width="18" height="18" viewBox="0 0 18 18" fill="none" xmlns="http://www.w3.org/2000/svg">
<g id="Group 2">
<g id="&#240;&#159;&#166;&#134; icon &#34;whatsapp&#34;">
<g id="Group">
<path id="Vector" d="M0.61576 17.5369C0.452649 17.5369 0.29767 17.4717 0.183492 17.3576C0.0285369 17.2027 -0.0366667 16.9744 0.0204221 16.7624L1.04803 12.9224C0.362963 11.6505 0.00409469 10.2156 0.00409469 8.76438C0.00409469 3.92971 3.93506 0 8.77126 0C13.6075 0 17.5385 3.92971 17.5385 8.76438C17.5385 13.5991 13.6075 17.5288 8.77126 17.5288C7.29511 17.5288 5.85164 17.1619 4.56306 16.4607L0.778879 17.5125C0.72179 17.5288 0.672849 17.5369 0.61576 17.5369ZM4.64459 15.197C4.75062 15.197 4.85665 15.2297 4.95451 15.2787C6.10444 15.9553 7.4256 16.314 8.77126 16.314C12.9306 16.314 16.3151 12.9305 16.3151 8.77253C16.3151 4.61457 12.9306 1.2311 8.77126 1.2311C4.61197 1.2311 1.22742 4.61457 1.22742 8.77253C1.22742 10.1015 1.5781 11.3978 2.2387 12.5392C2.32026 12.6778 2.34474 12.849 2.30396 13.0039L1.48841 16.0531L4.48964 15.2215C4.53857 15.2052 4.59566 15.197 4.64459 15.197Z" fill="black"/>
<path id="Vector_2" d="M11.0051 13.4672C10.4995 13.4672 9.97764 13.3531 9.43128 13.1167C8.91754 12.8966 8.4038 12.6031 7.90637 12.2363C7.41709 11.8776 6.93603 11.47 6.49568 11.0298C6.05533 10.5814 5.64756 10.1086 5.28876 9.61949C4.9218 9.10592 4.62824 8.60049 4.41622 8.10322C4.18789 7.56519 4.07373 7.03531 4.07373 6.52989C4.07373 6.1712 4.13895 5.82881 4.26127 5.51089C4.39174 5.17665 4.60377 4.87502 4.88103 4.61416C5.40292 4.10058 6.15318 3.9131 6.74846 4.19842C6.95233 4.28809 7.12358 4.43483 7.25408 4.63048L8.19994 5.95924C8.29779 6.08967 8.37126 6.22825 8.42835 6.36684C8.49358 6.52988 8.53436 6.69293 8.53436 6.84782C8.53436 7.05977 8.47719 7.27172 8.36303 7.45921C8.28964 7.58149 8.18363 7.72823 8.045 7.86681L7.93899 7.98094C7.98792 8.04616 8.045 8.12768 8.1347 8.2255C8.30594 8.42115 8.4935 8.6331 8.69737 8.8369C8.90123 9.03255 9.1051 9.2282 9.30896 9.39939C9.40682 9.48091 9.48844 9.54613 9.55368 9.58689L9.66776 9.47276C9.81455 9.32602 9.96141 9.21189 10.1082 9.13853C10.3773 8.96733 10.7931 8.92657 11.1601 9.08146C11.2905 9.13037 11.421 9.20374 11.5596 9.30157L12.9215 10.2635C13.1091 10.3939 13.2558 10.5733 13.3536 10.7771C13.4352 10.9809 13.4679 11.1602 13.4679 11.3477C13.4679 11.5923 13.4107 11.8287 13.3047 12.0569C13.1987 12.2689 13.0764 12.4564 12.9296 12.6276C12.6687 12.9129 12.367 13.1249 12.0408 13.2634C11.7147 13.402 11.3639 13.4672 11.0051 13.4672ZM6.15315 5.29892C6.10422 5.29892 5.94117 5.29892 5.7373 5.50272C5.58236 5.64946 5.47633 5.80437 5.40294 5.97556C5.32955 6.14675 5.29692 6.3424 5.29692 6.53805C5.29692 6.88043 5.37846 7.24726 5.54155 7.63856C5.7128 8.04616 5.96562 8.47821 6.27549 8.91027C6.59352 9.34233 6.95232 9.77438 7.35194 10.1738C7.75151 10.5651 8.17547 10.932 8.61582 11.258C9.03986 11.5678 9.47214 11.8124 9.90433 11.9999C10.5241 12.2689 11.0948 12.3341 11.5596 12.1385C11.7227 12.0732 11.8695 11.9591 12.0163 11.8124C12.0897 11.7309 12.1468 11.6493 12.1958 11.5434C12.2202 11.4863 12.2365 11.4211 12.2365 11.364C12.2365 11.3477 12.2365 11.3233 12.212 11.2744L10.8502 10.3287C10.7931 10.288 10.736 10.2554 10.6871 10.239C10.6545 10.2554 10.6056 10.2798 10.5159 10.3695L10.206 10.6793C9.96957 10.9157 9.59445 10.9809 9.29273 10.8749L9.14595 10.8097C8.9584 10.7119 8.74629 10.5651 8.50981 10.3613C8.28148 10.1657 8.06139 9.96188 7.8249 9.73362C7.59658 9.49722 7.39271 9.27711 7.197 9.04885C6.98494 8.79614 6.83816 8.59234 6.7403 8.42115L6.65062 8.2092C6.62615 8.12768 6.61797 8.03801 6.61797 7.95649C6.61797 7.72823 6.69955 7.52443 6.85448 7.36139L7.16438 7.04346C7.25408 6.95379 7.2867 6.90489 7.30301 6.87228C7.27855 6.81521 7.24593 6.76629 7.20516 6.70923L6.251 5.36416L6.15315 5.29892Z" fill="black"/>
</g>
</g>
<circle id="Ellipse 104" cx="8.53857" cy="9" r="6" fill="#EDEDED"/>
</g>
</svg>
